<svg height="511pt" viewBox="0 -11 511.99954 511" width="511pt" xmlns="http://www.w3.org/2000/svg"><path d="m459.351562 206.671875c0 5.519531-.347656 10.945313-1.023437 16.28125-8.003906 62.40625-61.324219 110.652344-125.917969 110.652344-70.101562 0-126.929687-56.828125-126.929687-126.933594 0-58.46875 39.542969-107.714844 93.347656-122.4375 10.699219-2.933594 21.953125-4.492187 33.582031-4.492187 70.113282 0 126.941406 56.828124 126.941406 126.929687zm0 0" fill="#efb025"/><g fill="#ffc73b"><path d="m459.351562 206.671875c0 5.519531-.347656 10.945313-1.023437 16.28125-10.699219 2.921875-21.964844 4.492187-33.597656 4.492187-70.101563 0-126.929688-56.828124-126.929688-126.929687 0-5.519531.351563-10.957031 1.027344-16.28125 10.699219-2.933594 21.953125-4.492187 33.582031-4.492187 70.113282 0 126.941406 56.828124 126.941406 126.929687zm0 0"/><path d="m332.414062 62.042969c-4.246093 0-7.691406-3.441407-7.691406-7.691407v-46.160156c0-4.246094 3.445313-7.691406 7.691406-7.691406 4.25 0 7.695313 3.445312 7.695313 7.691406v46.160156c0 4.25-3.445313 7.691407-7.695313 7.691407zm0 0"/><path d="m256.261719 82.453125c-2.65625 0-5.242188-1.378906-6.667969-3.847656l-23.078125-39.972657c-2.125-3.679687-.867187-8.386718 2.8125-10.511718s8.386719-.863282 10.511719 2.816406l23.078125 39.972656c2.125 3.679688.863281 8.386719-2.816407 10.511719-1.210937.699219-2.535156 1.03125-3.839843 1.03125zm0 0"/><path d="m200.492188 138.207031c-1.304688 0-2.625-.332031-3.839844-1.03125l-39.972656-23.078125c-3.679688-2.125-4.941407-6.832031-2.816407-10.511718 2.121094-3.679688 6.828125-4.941407 10.507813-2.816407l39.976562 23.082031c3.679688 2.125 4.941406 6.828126 2.816406 10.507813-1.425781 2.46875-4.011718 3.847656-6.671874 3.847656zm0 0"/><path d="m504.300781 298.21875c-1.015625 0-2.050781-.203125-3.042969-.628906l-29.71875-12.820313c-3.898437-1.683593-5.699218-6.210937-4.015624-10.113281 1.683593-3.898438 6.214843-5.699219 10.113281-4.015625l29.714843 12.820313c3.902344 1.683593 5.699219 6.210937 4.015626 10.113281-1.253907 2.90625-4.085938 4.644531-7.066407 4.644531zm0 0"/><path d="m149.320312 214.367188h-15.382812c-4.25 0-7.695312-3.445313-7.695312-7.695313 0-4.246094 3.445312-7.691406 7.695312-7.691406h15.382812c4.246094 0 7.691407 3.445312 7.691407 7.691406 0 4.25-3.445313 7.695313-7.691407 7.695313zm0 0"/><path d="m502.632812 214.367188h-17.894531c-4.25 0-7.695312-3.445313-7.695312-7.695313 0-4.246094 3.445312-7.691406 7.695312-7.691406h17.894531c4.25 0 7.691407 3.445312 7.691407 7.691406 0 4.25-3.441407 7.695313-7.691407 7.695313zm0 0"/><path d="m464.339844 138.207031c-2.660156 0-5.246094-1.378906-6.671875-3.847656-2.125-3.679687-.863281-8.382813 2.816406-10.507813l39.972656-23.082031c3.679688-2.121093 8.382813-.863281 10.511719 2.816407 2.121094 3.679687.863281 8.386718-2.816406 10.511718l-39.976563 23.078125c-1.207031.699219-2.53125 1.03125-3.835937 1.03125zm0 0"/><path d="m408.570312 82.453125c-1.304687 0-2.628906-.332031-3.839843-1.03125-3.679688-2.125-4.941407-6.832031-2.816407-10.511719l23.078126-39.972656c2.125-3.679688 6.832031-4.941406 10.511718-2.816406 3.679688 2.125 4.9375 6.832031 2.816406 10.511718l-23.082031 39.972657c-1.421875 2.46875-4.007812 3.847656-6.667969 3.847656zm0 0"/></g><path d="m501.179688 377.046875c0 61.414063-49.792969 111.195313-111.195313 111.195313h-298.421875c-50.570312 0-91.5625-40.992188-91.5625-91.5625 0-50.570313 40.992188-91.570313 91.5625-91.570313 3.570312 0 7.085938.203125 10.542969.605469.976562.113281 1.941406.234375 2.902343.378906 16.21875-61.9375 72.300782-107.75 139.171876-108.363281.449218-.011719.902343-.011719 1.363281-.011719 52.664062 0 98.773437 28.023438 124.253906 69.960938 6.542969-1.203126 13.292969-1.828126 20.1875-1.828126 32.578125 0 61.882813 14.011719 82.214844 36.332032h.011719c17.992187 19.757812 28.96875 46.027344 28.96875 74.863281zm0 0" fill="#939090"/><path d="m472.199219 302.1875c-104.855469-29.132812-159.785157 41.429688-159.785157 41.429688 0-36.929688 20-75.9375 57.382813-75.9375 6.542969-1.199219 13.292969-1.828126 20.1875-1.828126 32.578125 0 61.882813 14.011719 82.214844 36.335938zm0 0" fill="#777575"/><path d="m115.472656 488.242188h-23.910156c-50.570312 0-91.5625-40.988282-91.5625-91.5625 0-50.570313 40.992188-91.570313 91.5625-91.570313 3.570312 0 7.085938.207031 10.542969.605469.976562.113281 1.941406.234375 2.902343.378906-51.082031 0-103.386718 151.375 10.464844 182.148438zm0 0" fill="#777575"/><path d="m157.015625 349.769531s-11.683594-42.691406-52.007813-43.675781c16.21875-61.9375 72.300782-107.75 139.171876-108.363281-60.019532 1.324219-96.324219 89.425781-87.164063 152.039062zm0 0" fill="#777575"/><path d="m102.105469 305.714844c.976562.113281 1.941406.234375 2.902343.378906-1.003906-.019531-1.976562-.152344-2.902343-.378906zm0 0" fill="#939090"/></svg>